# xmcd CD database file
#
# Track frame offsets:
#	150
#	19841
#	41078
#
# Disc length: 792 seconds
#
# Revision: 0
# Processed by: cddbd v1.5.1PL0 Copyright (c) Steve Scherf et al.
# Submitted via: CDex 1.51
#
DISCID=1e031603
DTITLE=小野　真弓 - winter special edition
DYEAR=2004
DGENRE=JPop
TTITLE0=未・来・形
TTITLE1=Pearl White Eve
TTITLE2=ホットミルク
EXTD=YEAR: 2004
EXTT0=
EXTT1=
EXTT2=
PLAYORDER=
